<mxfile host="app.diagrams.net" modified="2021-04-10T00:56:08.136Z" agent="5.0 (Macintosh; Intel Mac OS X 11_2_3) AppleWebKit/537.36 (KHTML, like Gecko) Chrome/89.0.4389.114 Safari/537.36" etag="KoI02yPgP6W8bbkNb0xs" version="13.9.9" type="github">
  <diagram id="R2lEEEUBdFMjLlhIrx00" name="Page-1">
    <mxGraphModel dx="706" dy="769" grid="1" gridSize="10" guides="1" tooltips="1" connect="1" arrows="1" fold="1" page="1" pageScale="1" pageWidth="850" pageHeight="1100" math="0" shadow="0" extFonts="Permanent Marker^https://fonts.googleapis.com/css?family=Permanent+Marker">
      <root>
        <mxCell id="0" />
        <mxCell id="1" parent="0" />
        <mxCell id="Z0kd1ASCmChOHGYsaI4G-6" style="edgeStyle=orthogonalEdgeStyle;rounded=0;orthogonalLoop=1;jettySize=auto;html=1;exitX=1;exitY=0.5;exitDx=0;exitDy=0;" edge="1" parent="1" source="Z0kd1ASCmChOHGYsaI4G-1" target="Z0kd1ASCmChOHGYsaI4G-4">
          <mxGeometry relative="1" as="geometry" />
        </mxCell>
        <mxCell id="Z0kd1ASCmChOHGYsaI4G-1" value="교수" style="rounded=0;whiteSpace=wrap;html=1;" vertex="1" parent="1">
          <mxGeometry x="120" y="410" width="120" height="60" as="geometry" />
        </mxCell>
        <mxCell id="Z0kd1ASCmChOHGYsaI4G-2" value="과목" style="rounded=0;whiteSpace=wrap;html=1;" vertex="1" parent="1">
          <mxGeometry x="415" y="410" width="120" height="60" as="geometry" />
        </mxCell>
        <mxCell id="Z0kd1ASCmChOHGYsaI4G-3" value="학생" style="rounded=0;whiteSpace=wrap;html=1;" vertex="1" parent="1">
          <mxGeometry x="680" y="410" width="120" height="60" as="geometry" />
        </mxCell>
        <mxCell id="Z0kd1ASCmChOHGYsaI4G-7" style="edgeStyle=orthogonalEdgeStyle;rounded=0;orthogonalLoop=1;jettySize=auto;html=1;exitX=1;exitY=0.5;exitDx=0;exitDy=0;" edge="1" parent="1" source="Z0kd1ASCmChOHGYsaI4G-4" target="Z0kd1ASCmChOHGYsaI4G-2">
          <mxGeometry relative="1" as="geometry" />
        </mxCell>
        <mxCell id="Z0kd1ASCmChOHGYsaI4G-4" value="강의" style="rhombus;whiteSpace=wrap;html=1;" vertex="1" parent="1">
          <mxGeometry x="285" y="420" width="80" height="40" as="geometry" />
        </mxCell>
        <mxCell id="Z0kd1ASCmChOHGYsaI4G-8" value="수강" style="rhombus;whiteSpace=wrap;html=1;" vertex="1" parent="1">
          <mxGeometry x="570" y="420" width="80" height="40" as="geometry" />
        </mxCell>
        <mxCell id="Z0kd1ASCmChOHGYsaI4G-9" value="이름" style="ellipse;whiteSpace=wrap;html=1;" vertex="1" parent="1">
          <mxGeometry x="50" y="500" width="60" height="40" as="geometry" />
        </mxCell>
        <mxCell id="Z0kd1ASCmChOHGYsaI4G-10" value="직위" style="ellipse;whiteSpace=wrap;html=1;" vertex="1" parent="1">
          <mxGeometry x="230" y="500" width="60" height="40" as="geometry" />
        </mxCell>
        <mxCell id="Z0kd1ASCmChOHGYsaI4G-11" value="이메일" style="ellipse;whiteSpace=wrap;html=1;" vertex="1" parent="1">
          <mxGeometry x="140" y="500" width="60" height="40" as="geometry" />
        </mxCell>
        <mxCell id="Z0kd1ASCmChOHGYsaI4G-12" value="이름" style="ellipse;whiteSpace=wrap;html=1;" vertex="1" parent="1">
          <mxGeometry x="610" y="510" width="60" height="40" as="geometry" />
        </mxCell>
        <mxCell id="Z0kd1ASCmChOHGYsaI4G-13" value="직위" style="ellipse;whiteSpace=wrap;html=1;" vertex="1" parent="1">
          <mxGeometry x="790" y="510" width="60" height="40" as="geometry" />
        </mxCell>
        <mxCell id="Z0kd1ASCmChOHGYsaI4G-14" value="이메일" style="ellipse;whiteSpace=wrap;html=1;" vertex="1" parent="1">
          <mxGeometry x="700" y="510" width="60" height="40" as="geometry" />
        </mxCell>
      </root>
    </mxGraphModel>
  </diagram>
</mxfile>
